<svg width="69" height="51" viewBox="0 0 69 51" fill="none" xmlns="http://www.w3.org/2000/svg">
<path fill-rule="evenodd" clip-rule="evenodd" d="M55.6533 26.8367C55.2581 27.2644 54.9197 27.6348 54.742 27.8315C53.6631 29.0309 50.6216 31.686 49.138 34.2471C48.0054 36.2007 47.7735 38.1054 49.4308 39.4521C50.9371 40.676 53.1509 40.4535 55.5627 39.308C60.7532 36.8426 66.955 30.204 68.3101 27.7163C68.4579 27.4446 68.358 27.106 68.086 26.9588C67.8152 26.8123 67.4756 26.9124 67.3278 27.184C66.0268 29.571 60.0655 35.9333 55.0826 38.3003C53.1348 39.2252 51.3543 39.5743 50.1377 38.5853C48.9365 37.6099 49.2852 36.2217 50.1063 34.8055C51.5497 32.3128 54.5235 29.7442 55.5746 28.5769C56.2332 27.8448 58.8236 25.1233 58.9894 24.8367C59.1973 24.4781 58.99 24.2274 58.9158 24.1503C58.8583 24.0905 58.5525 23.8105 58.1388 24.1063C52.2363 28.32 40.2608 30.7132 29.5853 28.881C19.0036 27.0649 9.67849 21.0653 8.97058 8.3949C8.9528 8.08718 8.68836 7.85169 8.38055 7.86853C8.07213 7.88664 7.83577 8.15078 7.85355 8.45849C8.59554 21.7343 18.308 28.0789 29.3935 29.9816C38.7363 31.5854 49.0396 30.0101 55.6533 26.8367Z" fill="#1A1A1A"/>
<path fill-rule="evenodd" clip-rule="evenodd" d="M8.53951 9.07614C9.42814 10.0476 10.2819 11.0431 11.2468 11.9462C13.8169 14.3524 16.9987 16.3088 20.4123 17.2352C20.7112 17.3156 21.0181 17.1394 21.0997 16.8428C21.1806 16.5444 21.0045 16.2383 20.7074 16.1572C17.4672 15.28 14.4513 13.4145 12.0131 11.1314C10.9092 10.0972 9.95172 8.93887 8.91841 7.83829C8.86616 7.784 8.43182 7.29204 8.31153 7.2134C8.03251 7.02863 7.79854 7.1301 7.69629 7.19091C7.61022 7.24067 7.51909 7.32079 7.45116 7.45392C7.396 7.56347 7.34024 7.79586 7.33187 8.12234C7.30181 9.16804 7.58236 11.6167 7.58575 12.0236C7.62571 16.6873 6.87839 21.0337 6.20626 25.6291C6.16273 25.9343 6.37437 26.2182 6.6795 26.2626C6.98464 26.307 7.26807 26.0948 7.31288 25.7902C7.9939 21.1366 8.7445 16.734 8.70336 12.0137C8.70198 11.734 8.60861 10.1858 8.53951 9.07614Z" fill="#1A1A1A"/>
</svg>
