<svg width="59" height="56" viewBox="0 0 59 56" fill="none" xmlns="http://www.w3.org/2000/svg">
<rect x="0.5" y="0.219849" width="58" height="55.358" rx="10" fill="#FC5B11"/>
<path d="M35.7492 18.8115C34.4269 17.684 32.8075 16.922 31.0653 16.6075C29.323 16.293 27.5239 16.438 25.8615 17.0267C24.1991 17.6155 22.7364 18.6258 21.6308 19.9489C20.5252 21.272 19.8186 22.8578 19.587 24.5357C19.379 26.0069 19.5453 27.5043 20.072 28.9011C20.5987 30.2979 21.4702 31.5531 22.6127 32.5604C23.3193 33.1518 23.8894 33.8768 24.287 34.6895C24.6846 35.5022 24.901 36.3849 24.9224 37.2816L24.9224 37.4481C24.9236 38.4597 25.3451 39.4295 26.0945 40.1448C26.8439 40.8601 27.8601 41.2624 28.9199 41.2635L29.5916 41.2635C30.6514 41.2624 31.6675 40.8601 32.417 40.1448C33.1664 39.4295 33.5879 38.4597 33.5891 37.4481L33.5891 36.8804C33.6053 36.0878 33.8007 35.308 34.1619 34.5941C34.5232 33.8803 35.0417 33.2494 35.6821 32.7445C36.7205 31.8764 37.5539 30.8076 38.1269 29.6089C38.6999 28.4102 38.9996 27.109 39.0059 25.7914C39.0123 24.4739 38.7252 23.1701 38.1638 21.9664C37.6023 20.7627 36.7793 19.6866 35.7492 18.8095L35.7492 18.8115ZM29.5916 39.1955L28.9199 39.1955C28.4345 39.195 27.9692 39.0107 27.6259 38.6831C27.2827 38.3555 27.0896 37.9114 27.0891 37.4481C27.0891 37.4481 27.0815 37.1793 27.0804 37.1276L31.4224 37.1276L31.4224 37.4481C31.4218 37.9114 31.2288 38.3555 30.8855 38.6831C30.5423 39.0107 30.077 39.195 29.5916 39.1955ZM34.2499 31.1914C33.0165 32.2125 32.1257 33.558 31.6889 35.0596L30.3391 35.0596L30.3391 27.6314C30.9706 27.4183 31.5176 27.0242 31.9055 26.503C32.2933 25.9818 32.503 25.359 32.5057 24.7197C32.5057 24.4455 32.3916 24.1825 32.1884 23.9886C31.9853 23.7947 31.7097 23.6857 31.4224 23.6857C31.1351 23.6857 30.8595 23.7947 30.6564 23.9886C30.4532 24.1825 30.3391 24.4455 30.3391 24.7197C30.3391 24.994 30.2249 25.257 30.0218 25.4509C29.8186 25.6448 29.5431 25.7537 29.2557 25.7537C28.9684 25.7537 28.6929 25.6448 28.4897 25.4509C28.2865 25.257 28.1724 24.994 28.1724 24.7197C28.1724 24.4455 28.0583 24.1825 27.8551 23.9886C27.6519 23.7947 27.3764 23.6857 27.0891 23.6857C26.8018 23.6857 26.5262 23.7947 26.323 23.9886C26.1199 24.1825 26.0057 24.4455 26.0057 24.7197C26.0085 25.359 26.2182 25.9818 26.606 26.503C26.9938 27.0242 27.5409 27.4183 28.1724 27.6314L28.1724 35.0596L26.7402 35.0596C26.2516 33.5181 25.3353 32.1315 24.0882 31.0467C23.0298 30.1053 22.2755 28.8946 21.9145 27.5575C21.5535 26.2203 21.6007 24.8125 22.0507 23.5001C22.5007 22.1878 23.3346 21.0257 24.454 20.1509C25.5735 19.2762 26.9317 18.7253 28.3685 18.5634C28.6663 18.5316 28.9658 18.5158 29.2655 18.5158C31.1262 18.5105 32.9225 19.1658 34.3052 20.3542C35.1065 21.0363 35.7468 21.8731 36.1836 22.8092C36.6204 23.7453 36.8438 24.7593 36.8388 25.784C36.8339 26.8088 36.6009 27.8208 36.1551 28.7531C35.7093 29.6853 35.061 30.5165 34.2532 31.1914L34.2499 31.1914Z" fill="white"/>
</svg>
