<svg width="86" height="20" viewBox="0 0 86 20" fill="none" xmlns="http://www.w3.org/2000/svg">
<path d="M8.72662 13.647C8.72662 13.098 8.51415 12.6702 8.08921 12.3636C7.67201 12.057 6.93416 11.7397 5.87569 11.4117C4.81722 11.0838 3.95189 10.7665 3.27972 10.4599C1.09324 9.46878 -4.92393e-07 8.10693 0 6.37431C2.45183e-07 5.51157 0.270414 4.75221 0.81124 4.09624C1.35979 3.43314 2.1324 2.91978 3.12907 2.55614C4.12573 2.18537 5.24602 1.99999 6.48992 1.99999C7.70291 1.99999 8.78843 2.19964 9.74646 2.59892C10.2171 2.79352 10.6364 3.02876 11.0043 3.30464C11.2512 3.14582 11.5169 3.00328 11.8016 2.87703C12.7982 2.43496 13.9765 2.21393 15.3362 2.21393C17.3914 2.21393 19.01 2.70591 20.1921 3.68986C21.3742 4.67382 21.9768 6.02141 22 7.73263L22 18L17.909 18L17.909 7.65777C17.8627 5.95367 17.0051 5.10162 15.3362 5.10162C14.4941 5.10162 13.8567 5.31553 13.424 5.74333C12.9914 6.17114 12.775 6.86632 12.775 7.82889L12.775 10.3995C12.102 9.65054 11.1797 9.02404 10.061 8.51678C9.6619 8.33479 9.20983 8.15325 8.70726 7.97171V7.8075C8.70726 7.46998 8.73002 7.14555 8.77554 6.83421H8.73821C8.73821 6.19963 8.52574 5.70765 8.10081 5.35827C7.6836 5.0089 7.11573 4.83421 6.3972 4.83421C5.67095 4.83421 5.09536 4.98394 4.67042 5.28341C4.25321 5.57574 4.04461 5.95007 4.04461 6.4064C4.04461 6.80569 4.27639 7.16932 4.73996 7.49731C5.20352 7.81816 6.01862 8.15328 7.18526 8.50265C8.3519 8.8449 9.30994 9.21566 10.0594 9.61495C11.8827 10.5846 12.7944 11.9215 12.7944 13.6256C12.7944 14.9875 12.2381 16.057 11.1256 16.8342C10.013 17.6114 8.48711 18 6.54786 18L6.54786 15.1764C7.22003 15.1764 7.74927 15.0445 8.13557 14.7807C8.5296 14.5098 8.72662 14.1319 8.72662 13.647Z" fill="#FF5202"/>
<path d="M38.0669 6.79248V4.76758H31.897V15H38.0669V12.9561H33.9536V10.8423H37.4829V8.79199H33.9536V6.79248H38.0669ZM53.5776 9.25537H48.7661V11.1533H51.4131C51.3433 12.3848 50.2959 13.1338 48.8359 13.1338C46.8364 13.1338 45.4526 11.6738 45.4526 9.89648C45.4526 7.98584 47.0586 6.64014 48.6455 6.64014C49.5596 6.64014 50.4736 7.08447 51.2734 7.86523L52.416 6.15771C51.4131 5.18018 49.9976 4.5708 48.6709 4.55811C45.7446 4.55811 43.3579 6.97021 43.3579 9.89648C43.3579 12.8164 45.7319 15.2031 48.7471 15.2031C51.4131 15.2031 53.6284 13.3306 53.6284 10.1187C53.6284 9.83936 53.6094 9.55371 53.5776 9.25537ZM59.0288 15.2222C61.2061 15.2222 62.977 13.5337 62.977 11.2168V4.76758H60.9077V11.2104C60.9077 12.3213 60.0127 13.1401 59.0225 13.1401C58.0322 13.1401 57.1499 12.3276 57.1499 11.2104V4.76758H55.0806V11.2168C55.0806 13.5337 56.8516 15.2222 59.0288 15.2222ZM72.7065 15L69.7993 10.9312C70.8974 10.5439 71.6909 9.39502 71.6909 8.08105C71.6909 6.24023 70.123 4.76758 68.2124 4.76758H64.8735L64.8799 15H66.9365V10.1631L70.1929 15H72.7065ZM66.9302 6.80518H68.2505C68.9424 6.80518 69.5708 7.36377 69.5708 8.09375C69.5708 8.82373 68.9487 9.38867 68.2505 9.38232L66.9302 9.37598V6.80518ZM77.2436 15.2222C79.4209 15.2222 81.1919 13.5337 81.1919 11.2168V4.76758H79.1225V11.2104C79.1225 12.3213 78.2275 13.1401 77.2373 13.1401C76.2471 13.1401 75.3647 12.3276 75.3647 11.2104V4.76758H73.2954V11.2168C73.2954 13.5337 75.0664 15.2222 77.2436 15.2222Z" fill="#1A1A1A"/>
</svg>
