<svg width="59" height="56" viewBox="0 0 59 56" fill="none" xmlns="http://www.w3.org/2000/svg">
<rect x="0.5" y="0.252441" width="58" height="55.358" rx="10" fill="#525BF1"/>
<g clip-path="url(#clip0_4_162)">
<path d="M32.4999 32.3463C32.4999 31.2705 32.0521 30.2387 31.2551 29.478C30.4581 28.7173 29.377 28.2899 28.2499 28.2899C27.1227 28.2899 26.0417 28.7173 25.2447 29.478C24.4476 30.2387 23.9999 31.2705 23.9999 32.3463L23.9999 32.7042L26.9999 32.7042L26.9999 32.3463C26.9999 32.0299 27.1316 31.7264 27.366 31.5027C27.6004 31.279 27.9184 31.1533 28.2499 31.1533C28.5814 31.1533 28.8993 31.279 29.1338 31.5027C29.3682 31.7264 29.4999 32.0299 29.4999 32.3463C29.4999 32.9429 28.3079 33.7961 27.3499 34.4814C25.7799 35.6058 23.9999 36.88 23.9999 38.9082C23.9999 39.2879 24.1579 39.652 24.4392 39.9205C24.7205 40.189 25.1021 40.3398 25.4999 40.3398L32.4999 40.3398L32.4999 37.4765L28.1999 37.4765C28.5099 37.2341 28.8449 36.9993 29.1549 36.7731C30.7199 35.6487 32.4999 34.3745 32.4999 32.3463Z" fill="white"/>
<path d="M38.4999 28.8859L38.4999 33.6581L37.7499 33.6581C37.4185 33.6576 37.1009 33.5317 36.8666 33.3081C36.6323 33.0845 36.5004 32.7813 36.4999 32.4651L36.4999 28.8859L33.4999 28.8859L33.4999 32.4651C33.5012 33.5405 33.9494 34.5715 34.7461 35.332C35.5429 36.0924 36.6231 36.5202 37.7499 36.5215L38.4999 36.5215L38.4999 40.3393L41.4999 40.3393L41.4999 28.8859L38.4999 28.8859Z" fill="white"/>
<path d="M37.9712 20.8013C35.8934 18.8066 33.1182 17.613 30.1762 17.4487C27.2343 17.2845 24.3322 18.1611 22.0249 19.911C19.7177 21.6609 18.1673 24.1612 17.6704 26.9337C17.1734 29.7061 17.7647 32.5561 19.3312 34.9386L21.5232 32.8455C20.8063 31.5374 20.4554 30.0748 20.5044 28.5993C20.5534 27.1238 21.0007 25.6854 21.803 24.4233C22.6053 23.1612 23.7353 22.1182 25.0838 21.3952C26.4323 20.6722 27.9535 20.2937 29.5002 20.2964C31.8844 20.3043 34.1684 21.2126 35.8532 22.8228L33.5002 25.0686L39.4092 25.0686C39.5525 25.0687 39.6944 25.0419 39.8268 24.9896C39.9593 24.9373 40.0796 24.8606 40.1809 24.7639C40.2823 24.6672 40.3626 24.5523 40.4174 24.4259C40.4722 24.2996 40.5003 24.1641 40.5002 24.0273L40.5002 18.3875L37.9712 20.8013Z" fill="white"/>
</g>
<defs>
<clipPath id="clip0_4_162">
<rect width="24" height="22.9068" fill="white" transform="translate(17.5 17.4325)"/>
</clipPath>
</defs>
</svg>
