<svg width="59" height="56" viewBox="0 0 59 56" fill="none" xmlns="http://www.w3.org/2000/svg">
<rect x="0.5" y="0.187134" width="58" height="55.358" rx="10" fill="#1CD7AF"/>
<g clip-path="url(#clip0_4_148)">
<path d="M43.3973 38.5521L42.1641 31.5987C42.6722 31.1399 43.056 30.5599 43.2795 29.9129C43.5031 29.2658 43.5593 28.5727 43.4428 27.898C43.3264 27.2234 43.0411 26.5892 42.6135 26.0546C42.1859 25.5199 41.63 25.1022 40.9975 24.8402C40.5315 22.1727 39.1522 19.7504 37.0959 17.9884C35.0396 16.2265 32.4345 15.2347 29.7271 15.1831C27.0197 15.1316 24.3786 16.0234 22.2567 17.7057C20.1348 19.388 18.6642 21.7561 18.097 24.4039L17.25 29.1872C17.25 29.1872 19.1248 29.1872 19.3243 29.1721C21.3058 29.1121 23.253 28.6388 25.041 27.7826C24.9048 28.0349 24.8335 28.3171 24.8333 28.6039C24.8311 28.9437 24.9279 29.2767 25.1118 29.5624C25.2957 29.8482 25.5588 30.0741 25.869 30.2128C26.1792 30.3515 26.5231 30.3969 26.8586 30.3434C27.1942 30.29 27.5069 30.14 27.7586 29.9118C28.0104 29.6836 28.1902 29.387 28.2763 29.0583C28.3623 28.7296 28.3508 28.3829 28.2431 28.0606C28.1354 27.7384 27.9362 27.4544 27.6699 27.2434C27.4035 27.0325 27.0815 26.9036 26.7431 26.8726C29.9916 24.9917 32.6207 22.2037 34.3078 18.8506C35.5464 19.5916 36.5953 20.6109 37.3715 21.8278C38.1477 23.0446 38.6298 24.4255 38.7796 25.8611L38.8706 26.7314L39.7316 26.8866C40.1567 26.9697 40.5358 27.2075 40.7957 27.554C41.0556 27.9005 41.1777 28.331 41.1386 28.7623C41.0994 29.1937 40.9016 29.5952 40.5836 29.8891C40.2655 30.1831 39.8497 30.3487 39.4166 30.3539L38.0761 30.3539L37.8195 31.0819C36.7496 34.1129 33.1516 37.3539 29.5 37.3539C27.7378 37.2132 26.0471 36.596 24.6086 35.5685C23.1701 34.541 22.0379 33.1418 21.3333 31.5206L16.8381 31.5206L15.5758 38.6547C15.4639 39.2035 15.4754 39.7702 15.6095 40.314C15.7436 40.8578 15.9969 41.3649 16.3511 41.7987C16.7053 42.2325 17.1515 42.5822 17.6575 42.8223C18.1634 43.0625 18.7164 43.1871 19.2765 43.1872L26 43.1872L26 38.9966C27.113 39.4442 28.3003 39.6785 29.5 39.6872C30.6995 39.6784 31.8867 39.4445 33 38.9977L33 43.1872L39.7223 43.1872C40.2993 43.189 40.8689 43.0577 41.3869 42.8035C41.9049 42.5494 42.3573 42.1793 42.709 41.7219C43.0569 41.2805 43.2997 40.7656 43.419 40.2164C43.5382 39.6672 43.5308 39.098 43.3973 38.5521Z" fill="#FDFBF2"/>
<path d="M32.4165 30.3531C33.383 30.3531 34.1665 29.5696 34.1665 28.6031C34.1665 27.6366 33.383 26.8531 32.4165 26.8531C31.45 26.8531 30.6665 27.6366 30.6665 28.6031C30.6665 29.5696 31.45 30.3531 32.4165 30.3531Z" fill="#FDFBF2"/>
</g>
<defs>
<clipPath id="clip0_4_148">
<rect width="28" height="28" fill="white" transform="translate(15.5 15.1871)"/>
</clipPath>
</defs>
</svg>
